<svg width="296" height="162" viewBox="0 0 296 162" fill="none" xmlns="http://www.w3.org/2000/svg">
<g clip-path="url(#clip0_1974_122)">
<path d="M81.6929 46.6277C81.9124 34.7422 85.6359 23.9207 93.5022 14.648C97.2368 10.2441 101.673 6.70159 106.845 4.12181C114.828 0.143077 123.208 -1.02014 131.91 0.909743C139.629 2.62373 147.25 4.73867 154.648 7.58502C158.552 9.08751 162.337 10.8411 165.894 13.064C168.318 14.5797 170.598 16.2849 172.67 18.2611C177.778 23.1364 180.926 29.0957 182.357 35.9957C182.919 38.7033 183.23 41.4417 183.301 44.2087C183.454 50.2539 182.897 56.222 181.367 62.0778C178.37 73.5623 172.066 82.8262 162.662 89.9906C157.26 94.1059 151.291 97.1748 144.959 99.5563C140.722 101.149 136.388 102.422 131.962 103.361C121.103 105.665 111.427 103.132 102.904 96.0666C98.3887 92.3236 94.7924 87.7875 91.8236 82.7403C87.5888 75.5385 84.7824 67.7925 83.1367 59.6103C82.2898 55.3981 81.7785 51.1484 81.6951 46.6255L81.6929 46.6277ZM154.695 51.9833C154.48 48.1963 154.311 44.407 154.032 40.6244C153.782 37.2338 153.38 33.8587 152.63 30.5343C152.064 28.0272 151.311 25.5862 150.146 23.2863C147.892 18.8427 144.419 15.8553 139.655 14.3925C136.136 13.313 132.526 12.9803 128.88 13.313C123.899 13.769 119.64 15.8091 116.171 19.4639C114.464 21.2616 113.075 23.2774 111.901 25.4541C109.928 29.12 108.601 33.0282 107.6 37.0576C106.424 41.8008 105.715 46.6233 105.259 51.4832C104.963 54.6248 104.822 57.7752 104.952 60.93C105.066 63.6904 105.386 66.4266 106.042 69.1188C107.576 75.3931 111.023 80.2883 116.447 83.7823C118.604 85.1703 120.871 86.3379 123.232 87.3205C125.906 88.4308 128.59 89.5456 131.427 90.1756C136.439 91.2882 140.853 90.0611 144.663 86.6221C145.503 85.862 146.26 85.0227 146.958 84.1282C147.991 82.8064 148.871 81.3876 149.641 79.8961C151.785 75.7412 153.034 71.2976 153.812 66.7108C154.642 61.8354 154.853 56.9204 154.688 51.9833H154.695Z" fill="white"/>
<path d="M240.366 1.15926C246.641 1.05131 252.68 1.92152 258.485 4.17085C266.393 7.2331 272.781 12.3112 277.898 19.0437C282.427 25.0008 285.505 31.6761 287.497 38.8647C289.231 45.117 290.231 51.4816 289.953 57.9939C289.395 71.0162 284.641 82.2364 275.361 91.4033C269.963 96.7347 263.545 100.335 256.124 102.029C250.729 103.26 245.298 103.311 239.907 102.106C232.565 100.465 225.379 98.2813 218.461 95.2763C213.669 93.1944 209.109 90.7005 204.962 87.4885C200.516 84.0451 196.826 79.9408 194.103 74.9883C191.628 70.4874 190.142 65.6605 189.466 60.5825C188.262 51.5102 189.095 42.5834 191.593 33.8108C193.076 28.6006 195.397 23.7803 198.664 19.4447C202.217 14.7323 206.627 11.0356 211.795 8.22668C216.806 5.5037 222.16 3.77209 227.727 2.65294C231.922 1.81137 236.168 1.36635 240.361 1.15926H240.366ZM217.201 56.3019C217.133 59.0359 217.12 61.2059 217.015 63.3693C216.857 66.6233 216.885 69.8706 217.179 73.1135C217.359 75.083 217.732 77.0151 218.428 78.8723C219.567 81.9081 221.552 84.1861 224.438 85.6709C226.112 86.5323 227.885 87.0897 229.721 87.4642C233.21 88.1758 236.741 88.2551 240.278 88.1009C246.47 87.8277 251.797 85.4903 256.293 81.2208C258.558 79.0684 260.397 76.5855 261.93 73.8691C263.708 70.7254 265.064 67.4031 266.051 63.9311C268.182 56.4275 269.046 48.7696 268.66 40.9796C268.506 37.8711 267.973 34.811 266.938 31.8611C265.814 28.6535 264.131 25.7983 261.693 23.408C259.666 21.4208 257.325 19.9139 254.766 18.7265C250.678 16.8296 246.343 15.7876 241.934 14.9901C239.892 14.62 237.838 14.5296 235.773 14.6706C231.698 14.946 228.175 16.497 225.234 19.3566C223.047 21.4847 221.502 24.0381 220.319 26.8293C219.027 29.8872 218.25 33.086 217.732 36.3576C217.089 40.4134 216.997 44.4957 217.072 48.589C217.122 51.3472 217.164 54.1055 217.201 56.2975V56.3019Z" fill="white"/>
<path d="M47.5553 34.6187C47.1559 34.9646 47.1011 35.4757 46.9343 35.9141C45.0078 40.9657 42.0983 45.3675 38.232 49.1281C34.9144 52.3534 31.1337 54.8781 26.8221 56.57C23.5878 57.839 20.2416 58.555 16.7528 58.4316C14.0167 58.3347 11.4033 57.72 8.98531 56.3982C7.65561 55.6734 7.63806 55.4531 8.7988 54.4375C13.3386 50.4654 17.2334 45.9138 20.7836 41.0495C24.5313 35.9141 27.8446 30.4968 31.1162 25.053C33.3214 21.3805 35.5046 17.6948 37.859 14.117C39.2414 12.0197 40.7247 9.9995 42.2782 8.02556C45.1438 4.3839 48.9025 2.23371 53.337 1.16963C57.291 0.220109 61.2955 0.0328488 65.335 0.394151C67.4415 0.583614 69.5282 0.885434 71.5688 1.46264C72.2775 1.66311 72.9885 1.868 73.616 2.27336C74.0373 2.54434 74.1251 2.89463 73.7784 3.25593C72.2841 4.80909 71.639 6.77202 71.1168 8.78341C70.2457 12.1321 69.8463 15.5578 69.5523 18.999C68.973 25.7822 68.9248 32.5831 68.9687 39.3839C69.0125 46.3831 69.2912 53.3756 69.6467 60.3637C69.9604 66.5147 70.3773 72.6612 70.8118 78.8033C71.1475 83.5223 71.5842 88.2325 71.9747 92.9448C71.9791 92.9933 71.9813 93.0439 71.9879 93.0924C72.2337 95.1809 72.3061 94.9408 73.9013 95.3527C75.7663 95.8352 77.5524 96.5094 79.2222 97.4765C80.9952 98.5031 82.5048 99.8117 83.5317 101.618C83.7994 102.088 84.0627 102.563 84.1395 103.114C84.1768 103.374 83.9442 103.594 83.6853 103.533C83.5427 103.5 83.3978 103.462 83.264 103.405C80.4093 102.206 77.3835 101.843 74.3401 101.678C68.7865 101.378 63.2527 101.665 57.7365 102.392C54.1314 102.867 50.5723 103.605 46.9826 104.156C42.6578 104.822 38.3176 105.273 33.9314 105.172C31.814 105.121 29.7185 104.907 27.6559 104.412C27.035 104.262 26.414 104.103 25.8588 103.771C25.5034 103.559 25.4288 103.229 25.6701 102.903C26.0541 102.383 26.5456 101.973 27.0481 101.576C28.7969 100.193 30.7476 99.1618 32.786 98.285C35.9106 96.9412 39.1492 95.9586 42.4537 95.1853C44.7291 94.6522 44.5097 94.7777 44.6874 92.6187C44.863 90.5082 44.9376 88.3889 45.0451 86.2739C45.2887 81.4999 45.5125 76.7259 45.7648 71.954C45.9996 67.5259 46.2607 63.0999 46.5064 58.6718C46.6183 56.6538 46.7259 54.638 46.8246 52.6199C47.0594 47.8944 47.2832 43.171 47.5202 38.4454C47.5706 37.4607 47.665 36.4803 47.7177 35.4955C47.733 35.218 47.823 34.9117 47.5509 34.6165L47.5553 34.6187Z" fill="white"/>
<path d="M34.1991 146.902C34.3241 144.049 34.4536 141.194 34.5633 138.341C34.5787 137.96 34.6994 137.552 34.4295 137.198C33.8458 137.301 33.9226 137.843 33.7997 138.216C33.0866 140.37 32.2791 142.481 31.1623 144.463C30.041 146.453 28.6674 148.237 26.9494 149.744C26.5829 150.066 26.1748 150.346 25.7755 150.625C25.6109 150.74 25.352 150.581 25.3564 150.376C25.3608 150.132 25.3673 149.883 25.4068 149.643C26.0739 145.699 25.4771 141.892 24.1693 138.165C23.8928 137.376 23.5483 136.612 23.2126 135.845C23.0766 135.532 22.8901 135.237 22.7123 134.944C22.6355 134.816 22.5039 134.719 22.3481 134.79C22.2779 134.821 22.2077 134.935 22.2011 135.015C22.177 135.358 22.1682 135.702 22.1682 136.046C22.1616 137.425 22.1638 138.804 22.1594 140.183C22.144 144.016 21.4221 147.733 20.167 151.333C18.5916 155.844 15.4626 158.858 11.0172 160.517C9.51851 161.077 7.95842 161.246 6.37858 161.075C3.48221 160.76 1.50084 159.175 0.335706 156.53C-0.0329225 155.695 -0.0658358 154.802 0.0811768 153.917C0.245743 152.921 0.792104 152.201 1.75756 151.846C2.74715 151.482 3.58973 151.797 4.33357 152.458C4.86018 152.925 5.20029 153.52 5.39996 154.197C5.62377 154.954 5.55356 155.657 5.03133 156.281C4.9677 156.356 4.89749 156.426 4.83824 156.505C4.17998 157.402 4.34454 158.048 5.34511 158.451C6.21402 158.801 7.07634 158.737 7.91892 158.356C9.00506 157.865 9.95296 157.171 10.7977 156.334C12.4741 154.67 13.5668 152.648 14.3546 150.445C15.2761 147.874 15.704 145.204 15.8817 142.49C16.0309 140.223 15.9234 137.96 15.5855 135.711C15.3639 134.243 14.9931 132.82 14.3655 131.468C13.4484 129.491 12.7989 127.429 12.5378 125.257C12.439 124.427 12.3798 123.589 12.5487 122.759C12.5992 122.508 12.9634 122.393 13.1324 122.576C13.2991 122.757 13.4462 122.953 13.5976 123.147C14.5125 124.327 15.6184 125.29 16.9086 126.039C17.6305 126.458 18.3502 126.881 19.0765 127.293C20.7639 128.249 22.2055 129.491 23.4474 130.981C24.8078 132.611 25.9751 134.369 26.9801 136.239C27.6976 137.572 27.9675 137.592 28.9 136.385C30.5676 134.224 31.803 131.829 32.7048 129.251C33.1919 127.859 33.7076 126.473 34.2517 125.101C34.4492 124.603 34.7454 124.14 35.046 123.693C35.2699 123.36 35.6297 123.334 35.9435 123.572C36.4964 123.99 36.944 124.515 37.3631 125.063C38.9847 127.178 39.915 129.591 40.3955 132.197C40.8476 134.644 40.7071 137.107 40.5667 139.564C40.299 144.237 39.7812 148.887 39.0856 153.516C38.8859 154.851 38.8837 155.289 40.4219 155.525C40.9968 155.613 41.5541 155.838 42.107 156.036C42.57 156.204 42.9935 156.461 43.3468 156.812C43.5552 157.019 43.7834 157.241 43.6671 157.576C43.5596 157.882 43.2897 158.041 42.9957 158.087C42.513 158.162 42.0193 158.244 41.5365 158.219C40.6567 158.173 39.7768 158.074 38.9035 157.951C37.6879 157.779 36.4811 157.574 35.2523 157.506C33.9138 157.431 33.6944 157.191 33.7493 155.904C33.8392 153.789 33.9467 151.674 34.0543 149.557C34.0981 148.671 34.1618 147.788 34.2144 146.902C34.2078 146.902 34.2035 146.902 34.1969 146.902H34.1991Z" fill="white"/>
<path d="M106.883 118.383C105.864 118.78 105.248 119.615 104.664 120.472C103.468 122.23 102.538 124.129 101.796 126.121C100.462 129.703 99.7075 133.404 99.5451 137.224C99.4332 139.885 99.4464 142.542 99.8501 145.186C100.26 147.86 101.228 150.312 102.76 152.538C102.926 152.78 103.104 153.018 103.253 153.271C103.424 153.562 103.345 153.855 103.019 154.009C101.085 154.921 99.0799 155.547 96.9099 155.338C95.4112 155.192 94.0661 154.615 92.8571 153.712C90.9745 152.306 89.489 150.559 88.37 148.495C87.3123 146.543 86.4061 144.527 85.715 142.412C84.8263 139.696 84.0912 136.935 83.3693 134.173C83.2223 133.613 83.1587 133.016 82.8427 132.507C82.4412 132.598 82.5399 132.897 82.5377 133.104C82.5158 135.173 82.5004 137.242 82.5026 139.313C82.5026 141.879 82.3117 144.433 81.919 146.968C81.6162 148.922 81.1488 150.832 80.3435 152.648C79.8213 153.829 79.1586 154.917 78.169 155.772C77.3199 156.505 76.3522 156.937 75.2112 156.889C73.864 156.831 72.7713 155.941 72.4355 154.641C72.1196 153.414 72.8371 152.212 74.0593 151.921C75.356 151.612 76.4444 152.571 76.2754 153.901C76.2337 154.232 76.0604 154.549 75.9397 154.868C75.8673 155.056 75.7927 155.252 75.9946 155.388C76.1723 155.51 76.3829 155.459 76.5563 155.364C77.0939 155.075 77.4581 154.617 77.7456 154.089C78.0791 153.476 78.259 152.813 78.4126 152.139C78.9282 149.874 79.1367 147.57 79.3166 145.261C79.6677 140.736 79.615 136.202 79.6655 131.672C79.6765 130.637 79.6589 129.601 79.705 128.568C79.7708 127.064 79.2749 125.867 77.9518 125.074C77.7851 124.973 77.6249 124.856 77.4779 124.726C77.2782 124.55 77.2233 124.319 77.2913 124.059C77.3594 123.796 77.513 123.6 77.7785 123.574C78.1668 123.539 78.564 123.51 78.9502 123.554C81.388 123.843 83.806 124.252 86.2021 124.801C87.3496 125.065 88.0957 125.662 88.5433 126.786C89.331 128.756 90.0266 130.751 90.5729 132.8C91.0688 134.655 91.5318 136.521 92.0343 138.374C92.4841 140.04 92.9888 141.687 93.6997 143.263C93.8533 143.606 93.9499 144.164 94.3887 144.113C94.9702 144.047 94.8275 143.435 94.8517 143.031C95.0623 139.286 95.5187 135.574 96.3657 131.917C97.0239 129.075 97.928 126.321 99.2906 123.733C100.214 121.977 101.338 120.373 102.806 119.027C103.758 118.154 104.813 117.449 106.047 117.035C106.657 116.828 107.28 116.711 107.927 116.742C109.228 116.804 110.275 117.623 110.637 118.864C110.979 120.042 110.409 121.188 109.268 121.611C107.975 122.091 106.7 121.164 106.801 119.782C106.83 119.401 107.016 119.031 107.128 118.657C107.157 118.575 107.231 118.474 107.205 118.419C107.128 118.262 106.994 118.317 106.876 118.383H106.883Z" fill="white"/>
<path d="M74.5376 138.796C74.5771 140.159 74.4191 141.479 74.1689 142.785C73.2254 147.694 70.6406 151.485 66.4058 154.127C63.9614 155.651 61.302 156.643 58.4934 157.229C55.461 157.861 52.7534 157.092 50.3551 155.18C49.0364 154.129 47.959 152.855 47.0682 151.423C45.0539 148.187 43.9853 144.638 43.5464 140.866C43.2019 137.905 43.6386 135.068 44.773 132.336C45.8723 129.686 47.5399 127.465 49.925 125.839C52.6634 123.973 55.6651 123.348 58.9016 124.092C61.4864 124.687 64.0273 125.438 66.465 126.509C67.6368 127.025 68.7536 127.637 69.7937 128.388C72.1744 130.109 73.6379 132.422 74.2238 135.297C74.4608 136.458 74.5858 137.632 74.5376 138.796ZM65.1331 131.525L65.1529 131.506C64.0777 128.681 61.8067 127.359 59.0047 128.062C54.1072 129.291 50.2761 132.911 50.1466 138.965C50.0962 141.349 50.456 143.682 51.156 145.958C51.5926 147.379 52.2202 148.714 53.111 149.912C54.4627 151.727 56.2356 152.866 58.4737 153.267C60.9883 153.717 63.0179 152.948 64.5495 150.879C65.2275 149.965 65.7607 148.967 66.2478 147.943C68.3938 143.422 67.6214 139.126 65.1968 134.984C64.7228 134.173 64.0097 133.537 63.1386 133.131C62.2785 132.733 61.4227 132.755 60.6065 133.253C60.3432 133.413 60.183 133.676 60.24 134.002C60.2861 134.264 60.4748 134.447 60.7206 134.513C61.1463 134.625 61.5829 134.689 62.0108 134.79C62.4781 134.9 62.7985 135.18 62.8929 135.672C62.996 136.205 62.7305 136.793 62.2631 137.064C61.9098 137.269 61.528 137.319 61.1265 137.267C59.1868 137.013 58.0283 134.658 59.0135 132.966C59.5423 132.059 60.3541 131.541 61.3547 131.316C62.2258 131.12 63.1079 131.12 63.9856 131.298C64.3696 131.376 64.7535 131.451 65.1375 131.528L65.1331 131.525Z" fill="white"/>
<path d="M269.59 158.078C268.252 158.147 266.883 158.008 265.522 157.821C263.545 157.545 261.731 156.818 260.096 155.668C256.829 153.373 257.474 149.647 259.883 147.438C260.667 146.719 261.639 146.592 262.648 146.867C263.848 147.195 264.487 148.248 264.258 149.478C264.133 150.152 263.784 150.678 263.133 150.918C262.435 151.176 261.764 151.053 261.213 150.546C260.967 150.319 260.807 150 260.614 149.718C260.5 149.553 260.388 149.374 260.155 149.467C259.958 149.546 259.892 149.742 259.85 149.938C259.703 150.647 259.85 151.308 260.201 151.927C260.548 152.538 261.035 153.02 261.597 153.428C262.277 153.921 263.019 154.313 263.813 154.573C267.012 155.626 270.189 155.571 273.314 154.289C275.17 153.527 275.739 152.531 275.739 150.509C275.739 148.724 274.979 147.495 273.336 146.823C272.61 146.526 271.886 146.217 271.14 145.975C268.522 145.122 265.996 144.032 263.46 142.972C262.371 142.516 261.325 141.974 260.353 141.295C258.646 140.108 257.636 138.484 257.342 136.42C257.189 135.343 257.18 134.257 257.331 133.179C257.713 130.463 259.102 128.421 261.465 127.048C261.761 126.876 262.064 126.705 262.378 126.57C265.95 125.048 269.661 124.618 273.476 125.273C275.238 125.574 276.849 126.315 278.323 127.33C279.179 127.918 279.941 128.612 280.533 129.476C281.305 130.602 281.509 131.811 281.095 133.131C280.61 134.671 279.69 135.827 278.214 136.497C276.7 137.185 275.113 137.447 273.472 137.143C271.848 136.841 270.742 135.869 270.161 134.314C270.023 133.942 269.952 133.556 270.099 133.16C270.249 132.759 270.644 132.479 270.995 132.543C271.306 132.6 271.574 132.889 271.605 133.285C271.635 133.675 271.598 134.069 271.598 134.464C271.598 135.393 271.956 135.825 272.866 135.949C274.058 136.109 275.1 135.768 275.976 134.942C276.601 134.351 276.985 133.618 277.202 132.789C277.562 131.419 277.231 130.254 276.145 129.333C275.846 129.079 275.526 128.842 275.188 128.65C273.413 127.639 271.504 127.315 269.5 127.674C267.223 128.081 265.924 129.758 266.031 132.084C266.106 133.688 266.707 135.041 267.949 136.087C268.592 136.632 269.292 137.085 270.049 137.442C270.979 137.885 271.927 138.293 272.873 138.7C273.955 139.167 275.054 139.597 276.127 140.079C276.842 140.401 277.531 140.782 278.227 141.146C284.248 144.292 283.55 152.85 278.541 156.045C277.018 157.016 275.348 157.545 273.584 157.805C272.272 157.997 270.951 158.103 269.582 158.078H269.59Z" fill="white"/>
<path d="M160.496 129.972C160.847 130.477 160.856 131.043 160.722 131.629C160.597 132.184 160.283 132.607 159.811 132.922C158.216 133.984 156.026 133.457 155.087 131.792C154.164 130.155 154.322 127.19 156.658 125.835C157.562 125.31 158.53 124.951 159.555 124.79C163.776 124.129 167.967 124.2 172.095 125.434C173.942 125.987 175.671 126.797 177.251 127.914C179.774 129.699 181.615 132.027 182.594 134.973C183.678 138.238 184.15 141.584 183.581 145.021C183.103 147.916 181.938 150.469 179.889 152.6C178.662 153.875 177.207 154.734 175.504 155.186C173.405 155.743 171.259 155.948 169.095 156.008C167.423 156.054 165.762 155.873 164.099 155.726C162.519 155.585 160.957 155.51 159.504 156.327C159.373 156.402 159.188 156.378 159.118 156.226C159.063 156.105 159.052 155.935 159.087 155.807C159.226 155.305 159.583 154.957 159.994 154.682C160.358 154.435 160.742 154.19 161.152 154.047C162.041 153.741 162.35 153.117 162.308 152.23C162.289 151.837 162.315 151.441 162.317 151.047C162.361 144.347 162.407 137.645 162.447 130.946C162.449 130.406 162.427 129.862 162.39 129.322C162.361 128.881 162.111 128.582 161.688 128.476C160.527 128.185 159.359 128.159 158.194 128.461C158.008 128.509 157.823 128.595 157.657 128.696C156.93 129.135 156.691 130.012 157.082 130.752C157.45 131.45 158.374 131.712 159.133 131.331C159.449 131.173 159.684 130.928 159.89 130.646C160.057 130.419 160.068 130.06 160.496 129.97V129.972ZM168.239 141.272C168.226 141.272 168.215 141.272 168.202 141.272C168.16 142.994 168.103 144.719 168.077 146.442C168.049 148.462 168.024 150.483 168.046 152.501C168.055 153.355 168.444 153.653 169.28 153.56C170.886 153.382 172.305 152.76 173.514 151.672C174.638 150.663 175.43 149.418 175.908 148C177.144 144.334 177.457 140.593 176.661 136.786C176.387 135.475 175.913 134.235 175.186 133.103C173.833 130.996 171.902 129.761 169.459 129.311C168.656 129.163 168.345 129.401 168.277 130.186C168.239 130.626 168.239 131.071 168.239 131.514C168.237 134.766 168.239 138.018 168.239 141.269V141.272Z" fill="white"/>
<path d="M150.181 157.576C148.882 157.442 147.66 157.499 146.449 157.743C146.253 157.783 146.049 157.752 145.946 157.547C145.847 157.351 145.926 157.16 146.041 156.994C146.466 156.369 147.054 155.924 147.706 155.569C148.25 155.271 148.459 154.855 148.382 154.234C148.191 152.67 148.086 151.092 147.844 149.535C147.48 147.193 146.212 145.455 144.118 144.342C143.364 143.941 142.55 143.778 141.696 143.877C141.299 143.924 140.921 144.036 140.638 144.34C140.43 144.562 140.283 144.831 140.375 145.144C140.485 145.514 140.796 145.479 141.097 145.455C141.389 145.43 141.687 145.395 141.977 145.419C142.923 145.501 143.651 146.118 143.888 147.006C144.125 147.898 143.796 148.748 142.988 149.321C142.014 150.013 140.594 149.947 139.548 149.151C139.355 149.004 139.181 148.823 139.017 148.642C138.115 147.649 138.104 147.642 137.681 148.975C137.218 150.434 136.691 151.863 136.041 153.249C135.008 155.452 133.727 157.481 131.93 159.147C130.571 160.405 129.031 161.341 127.223 161.784C126.058 162.07 124.89 162.086 123.732 161.735C123.017 161.519 122.372 161.176 121.827 160.654C121.531 160.369 121.404 160.019 121.544 159.896C121.77 159.697 122.014 159.821 122.244 159.856C124.364 160.2 126.091 159.371 127.624 158.014C128.636 157.12 129.336 155.992 129.913 154.782C130.639 153.262 131.105 151.656 131.447 150.011C131.846 148.081 132.206 146.142 132.64 144.221C133.382 140.938 134.464 137.777 136.16 134.851C136.259 134.682 136.357 134.51 136.439 134.331C136.73 133.699 136.643 133.479 135.993 133.208C135.903 133.17 135.811 133.129 135.717 133.109C133.316 132.595 132.454 129.154 134.301 127.066C135.089 126.176 136.088 125.706 137.253 125.563C138.58 125.398 139.903 125.484 141.213 125.717C142.567 125.958 143.917 126.224 145.255 126.53C146.317 126.773 147.37 126.925 148.463 126.799C149.242 126.709 149.376 126.823 149.501 127.672C149.69 128.938 149.83 130.212 149.975 131.485C150.501 136.136 151.01 140.789 151.713 145.417C151.846 146.305 152.099 147.147 152.562 147.918C153.121 148.85 153.938 149.442 154.973 149.737C155.357 149.848 155.748 149.878 156.141 149.81C156.948 149.671 157.429 149.054 157.347 148.228C157.319 147.94 157.205 147.658 157.126 147.376C157.073 147.186 156.996 147.003 156.959 146.81C156.919 146.605 157.001 146.422 157.161 146.287C157.332 146.142 157.525 146.171 157.709 146.257C158.085 146.433 158.315 146.748 158.493 147.107C159.081 148.301 158.835 149.707 157.863 150.636C157.045 151.421 156.029 151.751 154.929 151.866C154.49 151.912 154.045 151.899 153.608 151.949C153.216 151.996 152.981 152.28 153.06 152.674C153.213 153.445 153.409 154.21 153.615 154.967C153.731 155.395 153.922 155.8 154.054 156.221C154.295 156.994 154.098 157.356 153.332 157.505C152.608 157.649 151.873 157.699 151.133 157.655C150.791 157.633 150.449 157.6 150.177 157.576H150.181ZM139.37 143.313C139.572 143.177 139.789 143.058 139.974 142.901C141.029 142.002 142.231 141.791 143.559 142.082C144.382 142.26 145.161 142.542 145.894 142.954C146.15 143.1 146.394 143.265 146.653 143.406C146.925 143.556 147.171 143.437 147.182 143.155C147.188 143.007 147.193 142.859 147.177 142.714C146.824 139.138 146.473 135.563 146.111 131.987C146.082 131.697 146.019 131.404 145.931 131.124C145.817 130.765 145.459 130.619 145.099 130.747C144.625 130.914 144.246 131.225 143.89 131.567C142.661 132.745 141.788 134.153 141.209 135.752C140.434 137.887 139.932 140.095 139.454 142.309C139.381 142.639 139.41 142.992 139.392 143.335L139.337 143.408L139.37 143.315V143.313ZM137.566 131.622C137.968 131.615 138.392 131.494 138.765 131.256C139.502 130.782 140.237 130.306 140.941 129.786C141.459 129.405 141.433 128.976 140.935 128.595C139.809 127.735 137.926 127.786 136.856 128.709C136.388 129.11 136.12 129.608 136.134 130.24C136.151 131.058 136.711 131.617 137.566 131.622Z" fill="white"/>
<path d="M254.079 143.587C254.014 147.907 252.638 151.602 249.505 154.506C246.722 157.085 243.453 158.05 239.716 157.132C237.954 156.698 236.212 156.182 234.507 155.554C233.493 155.18 232.508 154.739 231.558 154.221C227.933 152.252 226.026 149.181 225.765 145.07C225.634 142.99 225.827 140.937 226.36 138.923C227.29 135.412 229.245 132.596 232.181 130.477C234.735 128.635 237.594 127.496 240.673 126.941C243.517 126.428 246.005 127.291 248.162 129.168C249.246 130.109 250.147 131.21 250.885 132.444C252.947 135.901 253.976 139.653 254.077 143.585L254.079 143.587ZM232.717 141.287C232.717 144.054 233.092 146.526 233.908 148.923C234.323 150.144 234.88 151.289 235.758 152.252C236.923 153.532 238.351 153.99 240.021 153.538C243.657 152.551 246.29 150.37 247.718 146.837C248.895 143.929 249.09 140.886 248.572 137.835C248.008 134.513 246.009 132.391 242.753 131.49C241.605 131.173 240.44 131.063 239.258 131.153C237.779 131.266 236.524 131.867 235.468 132.909C234.465 133.9 233.829 135.108 233.388 136.432C232.835 138.086 232.662 139.791 232.714 141.289L232.717 141.287Z" fill="white"/>
<path d="M210.702 158.299C209.186 158.372 207.915 158.237 206.654 158.044C206.221 157.977 205.791 157.845 205.379 157.695C204.92 157.53 204.826 157.116 205.177 156.768C205.561 156.391 205.978 156.043 206.414 155.73C206.812 155.446 207.235 155.175 207.683 154.984C208.427 154.666 208.666 154.109 208.683 153.347C208.71 152.263 208.811 151.183 208.848 150.099C209.034 144.777 209.629 139.492 210.261 134.209C210.377 133.23 210.483 132.25 210.575 131.27C210.627 130.715 210.603 130.146 210.024 129.858C209.482 129.589 208.969 129.792 208.503 130.109C207.95 130.485 207.63 131.03 207.439 131.66C207.239 132.318 207.068 132.988 206.842 133.64C206.386 134.964 205.668 136.13 204.635 137.084C204.086 137.59 203.479 138.002 202.783 138.267C202.465 138.388 202.127 138.474 201.791 138.524C201.302 138.597 201.019 138.236 201.21 137.804C201.33 137.535 201.469 137.271 201.631 137.026C203.121 134.784 203.718 132.27 203.86 129.62C203.9 128.882 203.909 128.141 203.955 127.406C203.985 126.914 204.029 126.423 204.117 125.938C204.242 125.238 204.495 125.095 205.14 125.381C209.469 127.298 213.934 127.066 218.439 126.264C218.922 126.178 219.395 126.042 219.878 125.971C220.238 125.919 220.574 126.187 220.607 126.546C220.644 126.936 220.648 127.335 220.626 127.725C220.506 129.836 220.907 131.847 221.759 133.768C222.318 135.028 222.915 136.269 223.503 137.515C223.67 137.872 223.878 138.209 224.038 138.569C224.302 139.159 224.032 139.503 223.363 139.463C222.481 139.412 221.77 138.991 221.155 138.399C220.218 137.496 219.545 136.418 219.148 135.174C218.893 134.376 218.66 133.572 218.406 132.774C218.195 132.116 217.928 131.479 217.495 130.93C217.118 130.45 216.659 130.102 216.019 130.069C215.505 130.04 215.143 130.309 215.115 130.818C215.09 131.259 215.101 131.706 215.161 132.142C215.889 137.469 216.203 142.827 216.302 148.2C216.33 149.775 216.473 151.348 216.567 152.921C216.582 153.166 216.613 153.413 216.646 153.655C216.719 154.193 216.988 154.567 217.53 154.71C217.816 154.785 218.105 154.843 218.384 154.942C219.231 155.241 219.988 155.68 220.558 156.398C220.815 156.722 220.677 157.07 220.256 157.165C220.159 157.187 220.062 157.202 219.966 157.213C217.14 157.554 214.316 157.894 211.49 158.231C211.15 158.27 210.805 158.286 210.698 158.295L210.702 158.299Z" fill="white"/>
<path d="M120.814 155.025C118.742 154.992 116.704 155.309 114.663 155.589C113.246 155.783 111.826 155.772 110.404 155.71C110.014 155.692 109.621 155.637 109.239 155.551C108.829 155.461 108.261 155.523 108.175 154.959C108.098 154.459 108.568 154.203 108.899 153.926C109.434 153.476 110.062 153.192 110.736 153.027C111.473 152.846 111.778 152.368 111.793 151.641C111.8 151.247 111.841 150.855 111.857 150.46C112.046 144.992 112.73 139.568 113.312 134.135C113.432 133.01 113.571 131.886 113.687 130.76C113.722 130.419 113.746 130.071 113.724 129.729C113.68 129.007 113.235 128.692 112.519 128.846C111.798 129.002 111.28 129.445 110.953 130.084C110.663 130.65 110.428 131.249 110.213 131.851C109.915 132.684 109.671 133.538 109.384 134.376C108.73 136.279 107.258 137.389 105.573 138.279C105.406 138.368 105.2 138.405 105.006 138.42C104.232 138.482 103.811 137.87 104.149 137.165C104.298 136.856 104.486 136.565 104.677 136.279C106.202 134.006 106.88 131.472 106.997 128.76C107.043 127.678 107.117 126.599 107.192 125.517C107.209 125.275 107.258 125.028 107.332 124.797C107.418 124.528 107.661 124.413 107.914 124.457C108.199 124.506 108.482 124.609 108.743 124.735C109.184 124.949 109.606 125.204 110.042 125.429C110.922 125.883 111.846 126.224 112.84 126.279C114.701 126.381 116.561 126.462 118.424 126.526C119.46 126.561 120.467 126.401 121.47 126.101C123.056 125.625 123.607 125.911 124.087 127.52C125.018 130.633 125.889 133.761 126.784 136.885C126.81 136.98 126.835 137.074 126.854 137.171C127.065 138.312 126.435 138.861 125.323 138.495C124.542 138.238 123.98 137.704 123.545 137.019C122.988 136.138 122.615 135.178 122.33 134.18C122.086 133.327 121.873 132.468 121.625 131.617C121.461 131.049 121.235 130.503 120.853 130.038C120.39 129.474 119.813 129.152 119.063 129.201C118.527 129.234 118.229 129.496 118.224 130.025C118.22 130.465 118.275 130.908 118.321 131.349C118.856 136.391 119.396 141.432 119.936 146.473C120.125 148.235 120.34 149.993 120.502 151.758C120.574 152.56 120.91 153.011 121.726 153.155C122.551 153.298 123.352 153.562 123.96 154.194C124.125 154.366 124.259 154.58 124.359 154.796C124.425 154.937 124.333 155.12 124.182 155.148C123.947 155.195 123.699 155.197 123.458 155.186C122.576 155.142 121.696 155.082 120.814 155.029V155.025Z" fill="white"/>
<path d="M197.831 156.539C195.371 156.515 192.938 156.861 190.498 157.085C188.834 157.24 187.169 157.268 185.504 157.209C185.113 157.195 184.676 157.202 184.494 156.759C184.31 156.312 184.643 156.021 184.909 155.737C185.319 155.301 185.817 154.984 186.364 154.757C186.816 154.569 187.281 154.413 187.748 154.265C189.043 153.853 189.109 153.818 189.139 152.404C189.278 145.713 189.462 139.022 189.225 132.329C189.221 132.182 189.201 132.034 189.207 131.887C189.243 130.942 188.874 130.307 187.937 129.979C187.195 129.719 186.515 129.307 186.046 128.633C185.927 128.463 185.874 128.254 186.024 128.089C186.111 127.992 186.276 127.917 186.403 127.919C186.746 127.926 187.088 127.963 187.426 128.02C189.036 128.285 190.647 128.276 192.257 128.02C194.25 127.705 196.257 127.641 198.27 127.696C198.515 127.703 198.761 127.699 199.005 127.718C199.389 127.749 199.849 127.699 199.99 128.175C200.121 128.615 199.768 128.902 199.507 129.186C199.033 129.703 198.438 130.043 197.793 130.3C197.475 130.428 197.15 130.543 196.828 130.66C196.415 130.812 196.192 131.12 196.152 131.543C196.11 131.984 196.084 132.426 196.097 132.867C196.288 139.26 196.424 145.658 196.826 152.042C196.835 152.19 196.854 152.338 196.854 152.485C196.848 153.38 197.219 153.961 198.12 154.219C198.68 154.38 199.226 154.631 199.737 154.915C200.205 155.173 200.631 155.517 201.052 155.849C201.234 155.995 201.473 156.18 201.39 156.453C201.298 156.755 201.001 156.691 200.762 156.678C199.784 156.631 198.805 156.583 197.826 156.535L197.831 156.539Z" fill="white"/>
<path d="M296 129.436C295.96 131.609 294.28 133.239 292.127 133.197C290.021 133.157 288.351 131.415 288.377 129.282C288.406 127.066 290.01 125.51 292.232 125.543C294.346 125.577 296.039 127.326 296 129.436ZM295.274 129.388C295.289 127.498 294.005 126.193 292.154 126.22C290.444 126.242 289.077 127.612 289.053 129.324C289.027 131.19 290.319 132.483 292.195 132.468C293.959 132.454 295.261 131.152 295.274 129.39V129.388Z" fill="white"/>
<path d="M106.883 118.383C107.003 118.317 107.137 118.262 107.212 118.419C107.238 118.471 107.163 118.575 107.135 118.657C107.052 118.566 106.966 118.476 106.883 118.383Z" fill="white"/>
<path d="M65.1557 131.505C65.1557 131.505 65.1354 131.525 65.1354 131.528L65.1557 131.505Z" fill="white"/>
<path d="M139.37 143.315L139.337 143.408L139.392 143.333L139.37 143.315Z" fill="white"/>
<path d="M290.841 129.578C290.87 128.967 290.883 128.527 290.914 128.086C290.931 127.833 291.032 127.608 291.234 127.447C291.596 127.159 292.426 127.185 292.911 127.489C293.327 127.751 293.532 128.258 293.415 128.771C293.382 128.912 293.345 129.069 293.259 129.179C292.862 129.685 292.952 130.17 293.27 130.67C293.345 130.787 293.382 130.943 293.393 131.084C293.4 131.166 293.338 131.283 293.273 131.329C293.202 131.377 293.058 131.408 293.001 131.366C292.805 131.23 292.625 131.067 292.459 130.895C292.046 130.472 292.046 130.465 291.616 131.025C291.513 131.157 291.388 131.232 291.247 131.162C291.129 131.102 290.971 130.983 290.956 130.873C290.89 130.388 290.87 129.899 290.846 129.578H290.841ZM292.11 128.115C291.873 128.172 291.794 128.335 291.82 128.553C291.842 128.725 291.974 128.813 292.127 128.822C292.362 128.835 292.496 128.696 292.483 128.465C292.47 128.245 292.334 128.121 292.11 128.115Z" fill="white"/>
</g>
<defs>
<clipPath id="clip0_1974_122">
<rect width="296" height="162" fill="white"/>
</clipPath>
</defs>
</svg>
